<svg width="620" height="705" viewBox="0 0 620 705" fill="none" xmlns="http://www.w3.org/2000/svg">
<path d="M72.4605 93.74L1.01306 0.5H62.2538L130.129 74.5V130.74L88.2811 178.1H72.4605V93.74Z" fill="#D9D9D9"/>
<path d="M618.013 0.5H97.9775L161.77 74.5V148.007L118.901 203.753H72.4605L71.4399 703.5L184.225 567.34V83.38H337.837L457.767 203.753L618.013 0.5Z" fill="#D9D9D9"/>
<path d="M332.733 136.167L287.313 196.353H301.603L346.002 148.007L332.733 136.167Z" fill="#D9D9D9"/>
<path d="M323.547 217.567C328.311 210.496 344.471 188.953 371.009 159.353L429.188 217.567L371.009 293.047H208.211L263.327 217.567H323.547Z" fill="#D9D9D9"/>
<path d="M72.4605 93.74L1.01306 0.5H62.2538L130.129 74.5V130.74L88.2811 178.1H72.4605V93.74Z" stroke="black"/>
<path d="M618.013 0.5H97.9775L161.77 74.5V148.007L118.901 203.753H72.4605L71.4399 703.5L184.225 567.34V83.38H337.837L457.767 203.753L618.013 0.5Z" stroke="black"/>
<path d="M332.733 136.167L287.313 196.353H301.603L346.002 148.007L332.733 136.167Z" stroke="black"/>
<path d="M323.547 217.567C328.311 210.496 344.471 188.953 371.009 159.353L429.188 217.567L371.009 293.047H208.211L263.327 217.567H323.547Z" stroke="black"/>
</svg>
