<svg width="1074" height="869" viewBox="0 0 1074 869" fill="none" xmlns="http://www.w3.org/2000/svg">
<path d="M75.95 342.286V254.504L2 157.845H68.81L135.62 233.791V289.025L94.82 342.286H75.95Z" fill="#F1F8F6"/>
<path d="M166.22 233.791L104.51 164.749L94.82 157.845H625.73L459.98 368.424L344.21 246.12H187.64V728.922L75.95 867.5V360.533H123.38L166.22 307.765V233.791Z" fill="#F1F8F6"/>
<path d="M336.56 294.45C339.416 298.79 305.11 340.314 287.6 360.533H304.94L353.39 307.765L336.56 294.45Z" fill="#F1F8F6"/>
<path d="M212.63 456.206L270.77 379.273H326.87L376.85 318.615L434.99 379.273L376.85 456.206H212.63Z" fill="#F1F8F6"/>
<path d="M508.43 379.273L675.71 164.749H806.78L641.03 391.109L877.16 698.347H759.86L508.43 379.273Z" fill="#F1F8F6"/>
<path d="M897.56 274.723H822.59L1010.27 2.5V491.22H1073L952.64 698.347H924.08V581.468H822.59V491.22H924.08V233.791L897.56 274.723Z" fill="#F1F8F6"/>
<path d="M75.95 342.286V254.504L2 157.845H68.81L135.62 233.791V289.025L94.82 342.286H75.95Z" stroke="black"/>
<path d="M166.22 233.791L104.51 164.749L94.82 157.845H625.73L459.98 368.424L344.21 246.12H187.64V728.922L75.95 867.5V360.533H123.38L166.22 307.765V233.791Z" stroke="black"/>
<path d="M336.56 294.45C339.416 298.79 305.11 340.314 287.6 360.533H304.94L353.39 307.765L336.56 294.45Z" stroke="black"/>
<path d="M212.63 456.206L270.77 379.273H326.87L376.85 318.615L434.99 379.273L376.85 456.206H212.63Z" stroke="black"/>
<path d="M508.43 379.273L675.71 164.749H806.78L641.03 391.109L877.16 698.347H759.86L508.43 379.273Z" stroke="black"/>
<path d="M897.56 274.723H822.59L1010.27 2.5V491.22H1073L952.64 698.347H924.08V581.468H822.59V491.22H924.08V233.791L897.56 274.723Z" stroke="black"/>
</svg>
