<svg width="1044" height="863" viewBox="0 0 1044 863" fill="none" xmlns="http://www.w3.org/2000/svg">
<path d="M484.013 368.507L648.942 158.479H775.693L613.309 384.777L850.013 688.479H731.407L484.013 368.507Z" fill="#D9D9D9" stroke="black"/>
<path d="M72.4605 251.719L1.01306 158.479H62.2538L130.129 232.479V288.719L88.2811 336.079H72.4605V251.719Z" fill="#D9D9D9"/>
<path d="M618.013 158.479H97.9775L161.77 232.479V305.986L118.901 361.733H72.4605L71.4399 861.479L184.225 725.319V241.359H337.837L457.767 361.733L618.013 158.479Z" fill="#D9D9D9"/>
<path d="M332.733 294.146L287.313 354.333H301.603L346.002 305.986L332.733 294.146Z" fill="#D9D9D9"/>
<path d="M323.547 375.546C328.311 368.475 344.471 346.933 371.009 317.333L429.188 375.546L371.009 451.026H208.211L263.327 375.546H323.547Z" fill="#D9D9D9"/>
<path d="M72.4605 251.719L1.01306 158.479H62.2538L130.129 232.479V288.719L88.2811 336.079H72.4605V251.719Z" stroke="black"/>
<path d="M618.013 158.479H97.9775L161.77 232.479V305.986L118.901 361.733H72.4605L71.4399 861.479L184.225 725.319V241.359H337.837L457.767 361.733L618.013 158.479Z" stroke="black"/>
<path d="M332.733 294.146L287.313 354.333H301.603L346.002 305.986L332.733 294.146Z" stroke="black"/>
<path d="M323.547 375.546C328.311 368.475 344.471 346.933 371.009 317.333L429.188 375.546L371.009 451.026H208.211L263.327 375.546H323.547Z" stroke="black"/>
<path d="M866.304 265.141H781.013L982.237 1.47929V483.464H1043.01L921.461 688.479H893.882V568.722H781.013V483.464H893.882V227.687L866.304 265.141Z" fill="#D9D9D9" stroke="black"/>
</svg>
